HIERARCHY
ROOT Hips
{
	OFFSET 0.00000 0.00000 0.00000
	CHANNELS 6 Xposition Yposition Zposition Zrotation Yrotation Xrotation 
	JOINT LHipJoint
	{
		OFFSET 0 0 0
		CHANNELS 3 Zrotation Yrotation Xrotation
		JOINT LeftHip
		{
			OFFSET 1.36443 -1.53315 0.80540
			CHANNELS 3 Zrotation Yrotation Xrotation
			JOINT LeftKnee
			{
				OFFSET 2.27494 -6.25036 0.00000
				CHANNELS 3 Zrotation Yrotation Xrotation
				JOINT LeftAnkle
				{
					OFFSET 2.17461 -5.97470 0.00000
					CHANNELS 3 Zrotation Yrotation Xrotation
					JOINT LeftToe
					{
						OFFSET 0.22144 -0.60841 2.08966
						CHANNELS 3 Zrotation Yrotation Xrotation
						End Site
						{
							OFFSET 0.00000 -0.00000 1.09206
						}
					}
				}
			}
		}
	}
	JOINT RHipJoint
	{
		OFFSET 0 0 0
		CHANNELS 3 Zrotation Yrotation Xrotation
		JOINT RightHip
		{
			OFFSET -1.29957 -1.53315 0.80539
			CHANNELS 3 Zrotation Yrotation Xrotation
			JOINT RightKnee
			{
				OFFSET -2.23917 -6.15209 0.00000
				CHANNELS 3 Zrotation Yrotation Xrotation
				JOINT RightAnkle
				{
					OFFSET -2.18029 -5.99030 0.00000
					CHANNELS 3 Zrotation Yrotation Xrotation
					JOINT RightToe
					{
						OFFSET -0.22354 -0.61416 1.89975
						CHANNELS 3 Zrotation Yrotation Xrotation
						End Site
						{
							OFFSET -0.00000 -0.00000 1.00221
						}
					}
				}
			}
		}
	}
	JOINT lowerback
	{
		OFFSET 0 0 0
		CHANNELS 3 Zrotation Yrotation Xrotation
		JOINT Chest
		{
			OFFSET -0.04725 2.10352 -0.01215
			CHANNELS 3 Zrotation Yrotation Xrotation
			JOINT Chest2
			{
				OFFSET 0.04471 2.09612 -0.07192
				CHANNELS 3 Zrotation Yrotation Xrotation
				JOINT lowerneck
				{
					OFFSET 0 0 0
					CHANNELS 3 Zrotation Yrotation Xrotation
					JOINT Neck
					{
						OFFSET -0.01586 1.38087 0.11506
						CHANNELS 3 Zrotation Yrotation Xrotation
						JOINT Head
						{
							OFFSET -0.01055 1.38869 -0.12115
							CHANNELS 3 Zrotation Yrotation Xrotation
							End Site
							{
								OFFSET -0.00310 1.39537 -0.05348
							}
						}
					}
				}
				JOINT LeftCollar
				{
					OFFSET 0 0 0
					CHANNELS 3 Zrotation Yrotation Xrotation
					JOINT LeftShoulder
					{
						OFFSET 2.71932 0.62535 0.37316
CHANNELS 3 Zrotation Xrotation Yrotation
						JOINT LeftElbow
						{
OFFSET 0 -4.473660 0.000000
CHANNELS 3 Zrotation Xrotation Yrotation
							JOINT LeftWrist
							{
OFFSET 0 -3.199480 -0.000000
CHANNELS 3 Zrotation Xrotation Yrotation
								JOINT lhand
								{
									OFFSET 0 0 0
CHANNELS 3 Zrotation Xrotation Yrotation
									JOINT LFingers
									{
OFFSET 0 -0.492670 -0.000000
CHANNELS 3 Zrotation Xrotation Yrotation
										End Site
										{
OFFSET 0 -0.397200 -0.000000
										}
									}
								}
								JOINT LThumb
								{
OFFSET 0 0.000000 0.000000
CHANNELS 3 Zrotation Xrotation Yrotation
									End Site
									{
OFFSET 0 -0.403270 0.403270
									}
								}
							}
						}
					}
				}
				JOINT RightCollar
				{
					OFFSET 0 0 0
					CHANNELS 3 Zrotation Yrotation Xrotation
					JOINT RightShoulder
					{
						OFFSET -2.97334 0.70851 0.47631
CHANNELS 3 Zrotation Xrotation Yrotation
						JOINT RightElbow
						{
OFFSET 0 -4.326900 -0.000000
CHANNELS 3 Zrotation Xrotation Yrotation
							JOINT RightWrist
							{
OFFSET 0 -3.189600 0.000000
CHANNELS 3 Zrotation Xrotation Yrotation
								JOINT rhand
								{
									OFFSET 0 0 0
CHANNELS 3 Zrotation Xrotation Yrotation
									JOINT RFingers
									{
OFFSET 0 -0.464500 -0.000000
CHANNELS 3 Zrotation Xrotation Yrotation
										End Site
										{
OFFSET 0 -0.374490 -0.000000
										}
									}
								}
								JOINT RThumb
								{
OFFSET 0 0.000000 0.000000
CHANNELS 3 Zrotation Xrotation Yrotation
									End Site
									{
OFFSET 0 -0.380210 0.380210
									}
								}
							}
						}
					}
				}
			}
		}
	}
}
MOTION
Frames: 9
Frame Time: 0.008333333333333333
5.650592 25.962498 27.385099 1101.291786 79.844727 381.942698 0.000000 0.000000 0.000000 -21.883616 10.967933 -31.811210 6.255039 14.671014 45.996901 178.525385 -32.386056 -14.833559 0.000699 -0.112256 -0.308480 0.000000 0.000000 0.000000 22.318615 15.815841 -9.418636 -5.142691 -13.542690 41.435476 -2.423598 -13.505970 -36.673481 -0.656754 -5.183327 14.432262 -4.359431 -3.329883 -1.854646 3.697875 -4.369844 -0.737526 6.144461 -2.193437 0.895852 6.146252 -5.204671 -16.229911 -19.192082 -3.680704 24.288426 -8.467590 -3.240433 9.816290 0.000000 0.000000 0.000000 3.531565 5.559557 -31.415096 16.871526 -26.687594 4.029751 27.438121 -15.539957 -3.270919 0.000000 0.000000 0.000000 -7.125000 0.000000 0.000000 0.676753 33.663352 0.187191 0.000000 0.000000 0.000000 -13.789254 2.520178 14.750179 -13.196732 -21.574711 -2.525146 -12.241991 16.490338 30.951286 0.000000 0.000000 0.000000 7.125000 0.000000 0.000000 22.313544 60.107711 -8.475513
5.713358 25.958623 27.375012 1099.735359 78.190564 379.873888 0.000000 0.000000 0.000000 -20.769699 9.767885 -31.122749 6.936134 15.277700 48.632129 178.266554 -32.004423 -12.745492 0.135563 -2.368092 -6.524402 0.000000 0.000000 0.000000 21.846067 14.898666 -9.251314 -5.170470 -13.573229 41.553957 -2.277176 -12.654548 -35.287606 -0.424112 -4.179801 11.583067 -4.377963 -2.793808 -1.908947 3.311019 -3.655014 -0.455226 5.769111 -1.848101 1.093254 5.397722 -5.746307 -14.131758 -18.402167 -4.662310 22.482612 -7.844369 -3.590309 8.685192 0.000000 0.000000 0.000000 4.237568 6.506211 -28.615284 15.029601 -24.187305 3.238065 28.013867 -13.359515 -3.532842 0.000000 0.000000 0.000000 -7.125000 0.000000 0.000000 1.145451 33.978677 0.309766 0.000000 0.000000 0.000000 -13.674615 2.208572 17.997337 -14.260929 -23.106421 -2.929800 -12.099533 13.009618 31.400599 0.000000 0.000000 0.000000 7.125000 0.000000 0.000000 22.837857 60.485745 -8.893677
5.794413 25.983960 27.319492 1097.194725 78.247996 377.420710 0.000000 0.000000 0.000000 -17.991158 6.974915 -32.801802 8.508063 16.479910 54.371782 179.085696 -26.384160 -12.349170 0.005342 0.448440 1.232264 0.000000 0.000000 0.000000 22.039154 14.260146 -8.755851 -4.955404 -13.333398 40.629630 -2.297231 -11.836293 -34.820402 -0.463752 -4.368158 12.114729 -3.851078 -2.640074 -1.787695 3.241619 -3.461412 -0.433844 5.410728 -1.745722 0.985840 4.982017 -6.107396 -11.967000 -17.888910 -5.314142 21.268081 -7.420017 -3.780910 7.812009 0.000000 0.000000 0.000000 4.437175 6.181508 -27.875697 15.405716 -24.707981 3.393882 27.921373 -13.177932 -3.763606 0.000000 0.000000 0.000000 -7.125000 0.000000 0.000000 1.066336 34.235893 0.281660 0.000000 0.000000 0.000000 -13.459591 2.152408 20.359773 -15.373437 -24.663713 -3.380243 -12.665458 11.415983 31.955161 0.000000 0.000000 0.000000 7.125000 0.000000 0.000000 22.717472 61.125323 -9.195655
6.005740 25.962739 27.164283 1091.202204 77.300378 372.165823 0.000000 0.000000 0.000000 -12.844983 -0.867208 -31.221508 8.038732 16.147625 52.701808 -179.312358 -11.009858 -15.613547 0.164837 -2.614108 -7.206294 0.000000 0.000000 0.000000 22.302587 14.755358 -8.360688 -4.856560 -13.220428 40.199406 -2.303314 -11.609333 -34.697298 -0.341808 -3.756893 10.393779 -3.337687 -2.158280 -2.502708 3.342613 -2.810737 -0.368475 5.220868 -1.425906 1.354376 6.155545 -6.057001 -8.930226 -17.491758 -5.572275 20.608489 -7.286205 -3.646350 6.954248 0.000000 0.000000 0.000000 3.654747 6.039268 -30.183774 17.609979 -27.654878 4.366768 27.908358 -15.288586 -3.223149 0.000000 0.000000 0.000000 -7.125000 0.000000 0.000000 1.062417 33.625559 0.296315 0.000000 0.000000 0.000000 -14.592402 3.502441 22.115614 -19.983547 -30.622300 -5.523078 -13.993185 22.301513 31.125954 0.000000 0.000000 0.000000 7.125000 0.000000 0.000000 20.611557 60.683255 -8.078329
6.348406 26.003913 26.875421 1086.852154 72.840441 368.933900 0.000000 0.000000 0.000000 -7.620459 -11.485611 -26.966851 5.162834 13.563294 41.518483 -179.181850 -10.106319 -16.588332 0.544906 -4.724883 -13.126263 0.000000 0.000000 0.000000 20.728233 15.514277 -8.113497 -4.579181 -12.893637 38.971622 -2.334805 -8.976282 -33.166325 -0.160044 -2.575052 7.097957 -3.737635 -1.589884 -2.769696 2.949164 -2.036109 -0.240286 5.063080 -1.048665 1.545290 7.906380 -5.190044 -5.523246 -17.181866 -4.972119 17.393825 -7.121135 -3.044327 5.356524 0.000000 0.000000 0.000000 4.053223 6.130190 -31.528569 18.086528 -28.267864 4.590165 27.229992 -15.583660 -2.791440 0.000000 0.000000 0.000000 -7.125000 0.000000 0.000000 0.513747 33.117972 0.149299 0.000000 0.000000 0.000000 -18.580564 0.904031 23.847549 -33.274749 -43.526188 -13.615710 -23.831172 32.223736 30.954595 0.000000 0.000000 0.000000 7.125000 0.000000 0.000000 9.481123 62.988108 -4.159356
6.866255 25.992554 26.478989 1083.456611 65.451695 366.579311 0.000000 0.000000 0.000000 -3.074325 -19.432253 -22.630333 4.009478 12.172975 36.346768 -179.099095 4.939869 -20.383728 0.517336 -4.608688 -12.795879 0.000000 0.000000 0.000000 18.449823 17.815619 -7.579149 -4.411635 -12.688856 38.214766 -2.404294 -5.659489 -31.719901 -0.028754 -1.092467 3.003354 -5.176912 -0.862908 -2.838652 2.172009 -1.013950 -0.118516 5.115510 -0.552197 1.601432 5.926860 -4.892372 -3.637901 -13.890811 -5.152779 14.155775 -5.517484 -2.951710 4.221632 0.000000 0.000000 0.000000 5.396999 5.919670 -29.670019 16.678471 -26.431945 3.943171 27.797337 -14.919231 -3.133695 0.000000 0.000000 0.000000 -7.125000 0.000000 0.000000 0.972508 33.519598 0.273742 0.000000 0.000000 0.000000 -22.187428 -4.917250 23.812037 -45.316779 -50.918437 -22.485636 -29.566630 37.435969 31.193360 0.000000 0.000000 0.000000 7.125000 0.000000 0.000000 2.554624 64.805639 -1.217477
7.538191 26.007890 25.870270 1083.248831 56.671030 366.766050 0.000000 0.000000 0.000000 -7.767553 -18.560589 -18.929978 4.193684 12.413661 37.211700 -178.601868 -3.581093 -21.495610 0.438848 -4.246225 -11.771040 0.000000 0.000000 0.000000 14.102575 21.873560 -6.924292 -4.221636 -12.449620 37.341703 -2.252067 -3.215706 -29.644762 -0.009172 0.599502 -1.647388 -6.545479 0.792892 -2.184165 0.057292 1.231471 0.158409 3.768699 0.572713 1.251679 0.997783 -5.070902 -6.433508 -7.531132 -5.491755 18.935252 -2.972412 -3.106304 6.555215 0.000000 0.000000 0.000000 7.189367 5.236244 -29.377989 16.283715 -25.903786 3.769046 29.061163 -14.075248 -4.401805 0.000000 0.000000 0.000000 -7.125000 0.000000 0.000000 2.003005 35.007563 0.490353 0.000000 0.000000 0.000000 -21.010967 -5.238151 26.092232 -54.368073 -54.612153 -29.700136 -41.228817 32.382817 27.106747 0.000000 0.000000 0.000000 7.125000 0.000000 0.000000 -14.493203 63.654940 6.629446
8.140506 26.155721 25.049070 1082.598297 48.050997 368.057204 0.000000 0.000000 0.000000 -12.158725 -15.967202 -20.454126 4.577665 12.891805 38.964717 -178.783657 -11.166208 -20.068517 0.627406 -5.067807 -14.102063 0.000000 0.000000 0.000000 7.205889 22.479669 -13.339633 -4.327396 -12.583775 37.829851 -1.415837 3.289243 -21.660217 -0.069344 1.697629 -4.670686 -9.091122 1.212621 -0.961290 -1.352892 1.763709 0.365052 3.713509 0.847559 0.690705 -3.262424 -4.228686 -9.427798 -3.115396 -4.303398 22.923649 -0.928275 -2.526979 8.712638 0.000000 0.000000 0.000000 9.480156 3.243119 -29.347462 17.284612 -27.230989 4.217002 29.588227 -14.607678 -3.065318 0.000000 0.000000 0.000000 -7.125000 0.000000 0.000000 2.437417 33.496681 0.687889 0.000000 0.000000 0.000000 -17.672286 -3.947881 24.285299 -53.299160 -54.241860 -28.830787 -31.507107 38.916750 29.173952 0.000000 0.000000 0.000000 7.125000 0.000000 0.000000 -0.885548 63.195529 0.391527
8.711973 26.313919 24.225388 1080.845626 37.454207 368.240710 0.000000 0.000000 0.000000 -15.407580 -13.461453 -21.298353 4.533347 12.838145 38.765549 -179.420151 -18.723140 -17.825064 0.422770 -4.172496 -11.562633 0.000000 0.000000 0.000000 4.705803 20.372324 -21.356574 -4.752709 -13.099610 39.742729 -0.671825 -1.798040 -16.262056 -0.042587 1.326059 -3.646482 -9.393342 2.134622 -0.634474 -2.538842 2.968140 0.360297 2.642172 1.462913 0.393328 -5.486947 -3.099238 -13.249661 -0.807185 -2.574987 25.288910 0.327572 -1.723653 10.352199 0.000000 0.000000 0.000000 13.575653 2.012446 -28.834282 18.540788 -28.844076 4.807288 30.233174 -15.700596 -4.607403 0.000000 0.000000 0.000000 -7.125000 0.000000 0.000000 2.978538 35.295809 0.710766 0.000000 0.000000 0.000000 -13.457387 -1.232246 27.686861 -45.987120 -51.241778 -23.006328 -28.307170 37.928236 28.998334 0.000000 0.000000 0.000000 7.125000 0.000000 0.000000 3.013832 62.147571 -1.256728
